<svg width="79" height="22" viewBox="0 0 79 22" fill="none" xmlns="http://www.w3.org/2000/svg">
<path d="M16.9766 9.92578V10.1484C16.9609 10.8047 16.8906 11.4844 16.7656 12.1875C16.6484 12.8906 16.4805 13.5938 16.2617 14.2969C16.043 15 15.7812 15.6953 15.4766 16.3828C15.1719 17.0703 14.8281 17.7266 14.4453 18.3516C14.0703 18.9844 13.6641 19.5742 13.2266 20.1211C12.7891 20.6758 12.3281 21.1641 11.8438 21.5859L10.0977 20.5781C10.3711 20.1172 10.6172 19.6133 10.8359 19.0664C11.0625 18.5273 11.2656 17.9609 11.4453 17.3672C11.625 16.7734 11.7773 16.1641 11.9023 15.5391C12.0352 14.9141 12.1445 14.293 12.2305 13.6758C12.3164 13.0586 12.3789 12.4531 12.418 11.8594C12.4648 11.2578 12.4883 10.6875 12.4883 10.1484C12.4883 9.72656 12.4844 9.25 12.4766 8.71875C12.4766 8.17969 12.4453 7.63281 12.3828 7.07812C12.3281 6.52344 12.2344 5.98438 12.1016 5.46094C11.9688 4.92969 11.7695 4.45703 11.5039 4.04297C11.2461 3.62891 10.9102 3.29687 10.4961 3.04688C10.0898 2.79688 9.58203 2.67188 8.97266 2.67188C8.43359 2.67188 7.96875 2.76562 7.57812 2.95312C7.19531 3.13281 6.86719 3.37891 6.59375 3.69141C6.32812 3.99609 6.11328 4.35156 5.94922 4.75781C5.79297 5.16406 5.66797 5.59375 5.57422 6.04688C5.48828 6.49219 5.42969 6.94531 5.39844 7.40625C5.375 7.85938 5.36328 8.28906 5.36328 8.69531V11.9648H10.4141V13.8984H5.36328V18H0.710938V9.42188C0.710938 8.19531 0.90625 7.05469 1.29688 6C1.6875 4.94531 2.23828 4.03125 2.94922 3.25781C3.66797 2.47656 4.52734 1.86719 5.52734 1.42969C6.53516 0.984375 7.65625 0.761719 8.89062 0.761719C9.72656 0.761719 10.5078 0.882812 11.2344 1.125C11.9688 1.35938 12.6367 1.6875 13.2383 2.10938C13.8398 2.52344 14.375 3.01953 14.8438 3.59766C15.3203 4.16797 15.7148 4.79297 16.0273 5.47266C16.3477 6.15234 16.5898 6.87109 16.7539 7.62891C16.918 8.38672 16.9922 9.15234 16.9766 9.92578ZM32.1289 18H20.0117V1.125H24.6641V15.8555H32.1289V18ZM40.6367 18H35.9844V3.28125H31.3906V1.125H45.2305V3.28125H40.6367V18ZM61.3203 1.125L55.8594 10.9102V18H51.207V11.168L45.6875 1.125H50.4336L54.1016 9.60938L58.0391 1.125H61.3203ZM65.3398 18H63.1836V1.125H66.207L76.4609 12.7148V1.125H78.6055V18H75.582L65.3398 6.42188V18Z" fill="white"/>
</svg>
